<svg width="140" height="32" viewBox="0 0 140 32" fill="none" xmlns="http://www.w3.org/2000/svg">
<mask id="mask0" style="mask-type:alpha" maskUnits="userSpaceOnUse" x="36" y="6" width="32" height="20">
<path d="M66.182 6H37.818C36.8139 6 36 6.81395 36 7.818V24.182C36 25.1861 36.8139 26 37.818 26H66.182C67.1861 26 68 25.1861 68 24.182V7.818C68 6.81395 67.1861 6 66.182 6Z" fill="white"/>
</mask>
<g mask="url(#mask0)">
<path fill-rule="evenodd" clip-rule="evenodd" d="M45.8111 10.6916L43.2661 17.2116L42.2361 11.6676C42.1171 11.0486 41.6401 10.6916 41.1101 10.6916H36.9491L36.8911 10.9696C37.7451 11.1576 38.7151 11.4596 39.3031 11.7846C39.6631 11.9826 39.7661 12.1556 39.8841 12.6266L41.8341 20.2706H44.4181L48.3791 10.6916H45.8111ZM49.4281 10.6916L47.4061 20.2706H49.8511L51.8721 10.6916H49.4281ZM63.4461 13.2786L64.1861 16.8766H62.1591L63.4461 13.2786ZM63.0871 10.6916C62.6191 10.6916 62.2231 10.9686 62.0471 11.3946L58.3791 20.2706H60.9451L61.4551 18.8406H64.5911L64.8881 20.2706H67.1481L65.1761 10.6916H63.0881H63.0871ZM52.5411 13.6826C52.5231 15.0626 53.7541 15.8326 54.6811 16.2896C55.6331 16.7596 55.9521 17.0596 55.9491 17.4796C55.9421 18.1226 55.1891 18.4066 54.4851 18.4176C53.2571 18.4376 52.5431 18.0816 51.9751 17.8126L51.5321 19.9116C52.1021 20.1776 53.1561 20.4096 54.2511 20.4196C56.8181 20.4196 58.4981 19.1356 58.5071 17.1426C58.5171 14.6156 55.0571 14.4756 55.0811 13.3456C55.0891 13.0026 55.4111 12.6376 56.1191 12.5446C56.4691 12.4976 57.4341 12.4616 58.5291 12.9726L58.9591 10.9426C58.3691 10.7246 57.6111 10.5166 56.6701 10.5166C54.2531 10.5166 52.5531 11.8186 52.5401 13.6826" fill="#1A1F71"/>
</g>
<path d="M84.3877 9.45898H91.5667V22.384H84.3877V9.45898Z" fill="#FF5F00"/>
<path d="M84.8439 15.9228C84.8409 13.3998 85.9969 11.0168 87.9779 9.45877C84.6129 6.81077 79.7819 7.19677 76.8799 10.3448C73.9769 13.4948 73.9769 18.3488 76.8799 21.4978C79.7819 24.6468 84.6129 25.0318 87.9779 22.3838C85.9979 20.8268 84.8419 18.4438 84.8439 15.9228V15.9228Z" fill="#EB001B"/>
<path d="M101.254 15.9227C101.254 19.0697 99.46 21.9397 96.634 23.3147C93.809 24.6907 90.4471 24.3287 87.9781 22.3837C89.9571 20.8257 91.113 18.4437 91.113 15.9217C91.113 13.3997 89.9571 11.0167 87.9771 9.45867C90.4471 7.51367 93.807 7.15267 96.633 8.52767C99.459 9.90267 101.253 12.7737 101.253 15.9197V15.9227H101.254Z" fill="#F79E1B"/>
<path d="M137.562 21.9422C137.562 24.2842 135.655 26.1902 133.313 26.1902H110.2V9.36519C110.2 7.02419 112.107 5.11719 114.448 5.11719H137.562V21.9422V21.9422Z" fill="white"/>
<path d="M130.035 17.6275H131.791C131.841 17.6275 131.959 17.6105 132.009 17.6105C132.343 17.5435 132.628 17.2425 132.628 16.8245C132.628 16.4235 132.343 16.1225 132.008 16.0385C131.958 16.0215 131.858 16.0215 131.791 16.0215H130.035V17.6275V17.6275Z" fill="url(#paint0_linear)"/>
<path d="M131.59 6.53809C129.919 6.53809 128.548 7.89309 128.548 9.58209V12.7431H132.846C132.946 12.7431 133.063 12.7431 133.147 12.7601C134.117 12.8101 134.837 13.3121 134.837 14.1821C134.837 14.8671 134.351 15.4521 133.448 15.5701V15.6031C134.435 15.6701 135.188 16.2231 135.188 17.0751C135.188 17.9951 134.351 18.5971 133.248 18.5971H128.53V24.7851H132.996C134.668 24.7851 136.039 23.4301 136.039 21.7411V6.53809H131.591H131.59Z" fill="url(#paint1_linear)"/>
<path d="M132.41 14.3825C132.41 13.9815 132.126 13.7135 131.791 13.6635C131.758 13.6635 131.674 13.6465 131.624 13.6465H130.035V15.1185H131.625C131.675 15.1185 131.775 15.1185 131.791 15.1025C132.126 15.0525 132.411 14.7845 132.411 14.3825H132.41Z" fill="url(#paint2_linear)"/>
<path d="M114.766 6.53906C113.093 6.53906 111.722 7.89306 111.722 9.58306V17.0921C112.575 17.5101 113.462 17.7781 114.348 17.7781C115.401 17.7781 115.97 17.1421 115.97 16.2721V12.7271H118.579V16.2561C118.579 17.6271 117.726 18.7481 114.833 18.7481C113.077 18.7481 111.705 18.3631 111.705 18.3631V24.7691H116.171C117.843 24.7691 119.215 23.4141 119.215 21.7251V6.53906H114.765H114.766Z" fill="url(#paint3_linear)"/>
<path d="M123.178 6.53909C121.506 6.53909 120.134 7.89309 120.134 9.58309V13.5631C120.904 12.9111 122.242 12.4931 124.399 12.5931C125.553 12.6431 126.791 12.9611 126.791 12.9611V14.2491C126.172 13.9311 125.436 13.6471 124.483 13.5791C122.843 13.4631 121.857 14.2661 121.857 15.6701C121.857 17.0921 122.844 17.8951 124.483 17.7611C125.436 17.6941 126.172 17.3931 126.791 17.0921V18.3801C126.791 18.3801 125.57 18.6981 124.399 18.7481C122.242 18.8481 120.904 18.4301 120.134 17.7781V24.8021H124.6C126.272 24.8021 127.644 23.4471 127.644 21.7581V6.53809H123.178V6.53909Z" fill="url(#paint4_linear)"/>
<path d="M27.305 7C28.793 7 30 8.207 30 9.695V22.305C30 23.793 28.793 25 27.305 25H4.695C3.207 25 2 23.793 2 22.305V9.695C2 8.207 3.207 7 4.695 7H27.305ZM27.305 8H4.695C3.808 8 3.08 8.681 3.006 9.549L3 9.695V22.305C3 23.192 3.681 23.92 4.549 23.994L4.695 24H27.305C28.192 24 28.92 23.319 28.994 22.451L29 22.305V9.695C29 8.808 28.319 8.08 27.451 8.006L27.305 8Z" fill="#242424"/>
<path d="M8.146 21.214L8.676 19.608H10.962L11.492 21.214H12.663L10.458 15H9.205L7 21.214H8.146ZM10.699 18.751H8.934L9.804 16.098H9.834L10.699 18.751ZM15.954 21.214V15.94H17.81V15H12.986V15.939H14.846V21.214H15.954V21.214ZM19.571 21.214V16.804H19.601L21.397 21.214H22.155L23.951 16.804H23.981V21.214H24.981V15H23.697L21.793 19.742H21.759L19.855 15H18.568V21.214H19.571V21.214Z" fill="black"/>
<path d="M26 10H23C22.4477 10 22 10.4477 22 11V12C22 12.5523 22.4477 13 23 13H26C26.5523 13 27 12.5523 27 12V11C27 10.4477 26.5523 10 26 10Z" fill="#0D5CB6"/>
<defs>
<linearGradient id="paint0_linear" x1="128.543" y1="16.8262" x2="136.061" y2="16.8262" gradientUnits="userSpaceOnUse">
<stop stop-color="#007940"/>
<stop offset="0.2285" stop-color="#00873F"/>
<stop offset="0.7433" stop-color="#40A737"/>
<stop offset="1" stop-color="#5CB531"/>
</linearGradient>
<linearGradient id="paint1_linear" x1="128.544" y1="15.6539" x2="136.06" y2="15.6539" gradientUnits="userSpaceOnUse">
<stop stop-color="#007940"/>
<stop offset="0.2285" stop-color="#00873F"/>
<stop offset="0.7433" stop-color="#40A737"/>
<stop offset="1" stop-color="#5CB531"/>
</linearGradient>
<linearGradient id="paint2_linear" x1="128.543" y1="14.38" x2="136.062" y2="14.38" gradientUnits="userSpaceOnUse">
<stop stop-color="#007940"/>
<stop offset="0.2285" stop-color="#00873F"/>
<stop offset="0.7433" stop-color="#40A737"/>
<stop offset="1" stop-color="#5CB531"/>
</linearGradient>
<linearGradient id="paint3_linear" x1="111.718" y1="15.6548" x2="119.351" y2="15.6548" gradientUnits="userSpaceOnUse">
<stop stop-color="#1F286F"/>
<stop offset="0.4751" stop-color="#004E94"/>
<stop offset="0.8261" stop-color="#0066B1"/>
<stop offset="1" stop-color="#006FBC"/>
</linearGradient>
<linearGradient id="paint4_linear" x1="120.091" y1="15.6542" x2="127.504" y2="15.6542" gradientUnits="userSpaceOnUse">
<stop stop-color="#6C2C2F"/>
<stop offset="0.1735" stop-color="#882730"/>
<stop offset="0.5731" stop-color="#BE1833"/>
<stop offset="0.8585" stop-color="#DC0436"/>
<stop offset="1" stop-color="#E60039"/>
</linearGradient>
</defs>
</svg>
